<svg width="28" height="30" viewBox="0 0 28 30" fill="none" xmlns="http://www.w3.org/2000/svg">
<g clip-path="url(#clip0_19_1006)">
<path d="M21.9915 7.14866H18.5856V0H9.41426V7.14866H6.0083L13.9999 16.5311L21.9915 7.14866Z" fill="#2276D6"/>
<path d="M0 19.1752V30H28V19.1752H0ZM19.0515 25.5154C18.5733 25.5154 18.1856 25.1 18.1856 24.5876C18.1856 24.0752 18.5733 23.6598 19.0515 23.6598C19.5298 23.6598 19.9175 24.0752 19.9175 24.5876C19.9175 25.1 19.5298 25.5154 19.0515 25.5154ZM23.0928 25.5154C22.6145 25.5154 22.2268 25.1 22.2268 24.5876C22.2268 24.0752 22.6145 23.6598 23.0928 23.6598C23.571 23.6598 23.9588 24.0752 23.9588 24.5876C23.9588 25.1 23.571 25.5154 23.0928 25.5154Z" fill="#2276D6"/>
</g>
<defs>
<clipPath id="clip0_19_1006">
<rect width="28" height="30" fill="white"/>
</clipPath>
</defs>
</svg>
